<mxfile host="app.diagrams.net" modified="2023-06-13T09:06:36.446Z" agent="Mozilla/5.0 (Windows NT 10.0; Win64; x64) AppleWebKit/537.36 (KHTML, like Gecko) Chrome/114.0.0.0 Safari/537.36" etag="RhFOgy-TQ2Wr2yKJZsFk" version="21.3.8" type="github">
  <diagram name="第 1 页" id="aOeQXoTltMYjTTfBLWYI">
    <mxGraphModel dx="2035" dy="1238" grid="1" gridSize="10" guides="1" tooltips="1" connect="1" arrows="1" fold="1" page="1" pageScale="1" pageWidth="3300" pageHeight="4681" math="0" shadow="0">
      <root>
        <mxCell id="0" />
        <mxCell id="1" parent="0" />
        <mxCell id="Muw8rnbawQWDz423CU67-1" style="edgeStyle=orthogonalEdgeStyle;rounded=0;orthogonalLoop=1;jettySize=auto;html=1;" edge="1" parent="1" source="Muw8rnbawQWDz423CU67-2" target="Muw8rnbawQWDz423CU67-16">
          <mxGeometry relative="1" as="geometry">
            <mxPoint x="420" y="220" as="targetPoint" />
          </mxGeometry>
        </mxCell>
        <mxCell id="Muw8rnbawQWDz423CU67-2" value="上传文件" style="rounded=0;whiteSpace=wrap;html=1;" vertex="1" parent="1">
          <mxGeometry x="360" y="110" width="120" height="60" as="geometry" />
        </mxCell>
        <mxCell id="Muw8rnbawQWDz423CU67-3" style="edgeStyle=orthogonalEdgeStyle;rounded=0;orthogonalLoop=1;jettySize=auto;html=1;" edge="1" parent="1" source="Muw8rnbawQWDz423CU67-4" target="Muw8rnbawQWDz423CU67-6">
          <mxGeometry relative="1" as="geometry" />
        </mxCell>
        <mxCell id="Muw8rnbawQWDz423CU67-4" value="获取文件名" style="rounded=0;whiteSpace=wrap;html=1;" vertex="1" parent="1">
          <mxGeometry x="360" y="520" width="120" height="60" as="geometry" />
        </mxCell>
        <mxCell id="Muw8rnbawQWDz423CU67-5" style="edgeStyle=orthogonalEdgeStyle;rounded=0;orthogonalLoop=1;jettySize=auto;html=1;" edge="1" parent="1" source="Muw8rnbawQWDz423CU67-6" target="Muw8rnbawQWDz423CU67-66">
          <mxGeometry relative="1" as="geometry" />
        </mxCell>
        <mxCell id="Muw8rnbawQWDz423CU67-6" value="生成文件UUID，文件名称UUID，记录到redis，并将文件名称修改为文件名称UUID" style="rounded=0;whiteSpace=wrap;html=1;" vertex="1" parent="1">
          <mxGeometry x="280" y="650" width="280" height="60" as="geometry" />
        </mxCell>
        <mxCell id="Muw8rnbawQWDz423CU67-7" style="edgeStyle=orthogonalEdgeStyle;rounded=0;orthogonalLoop=1;jettySize=auto;html=1;" edge="1" parent="1" source="Muw8rnbawQWDz423CU67-8" target="Muw8rnbawQWDz423CU67-80">
          <mxGeometry relative="1" as="geometry" />
        </mxCell>
        <mxCell id="Muw8rnbawQWDz423CU67-8" value="返回文件基础信息（文件UUID、文件名称）" style="rounded=0;whiteSpace=wrap;html=1;" vertex="1" parent="1">
          <mxGeometry x="360" y="950" width="120" height="60" as="geometry" />
        </mxCell>
        <mxCell id="Muw8rnbawQWDz423CU67-13" value="是" style="edgeStyle=orthogonalEdgeStyle;rounded=0;orthogonalLoop=1;jettySize=auto;html=1;entryX=0.5;entryY=0;entryDx=0;entryDy=0;" edge="1" parent="1" source="Muw8rnbawQWDz423CU67-16" target="Muw8rnbawQWDz423CU67-4">
          <mxGeometry relative="1" as="geometry" />
        </mxCell>
        <mxCell id="Muw8rnbawQWDz423CU67-14" style="edgeStyle=orthogonalEdgeStyle;rounded=0;orthogonalLoop=1;jettySize=auto;html=1;entryX=1;entryY=0.5;entryDx=0;entryDy=0;exitX=1;exitY=0.5;exitDx=0;exitDy=0;" edge="1" parent="1" source="Muw8rnbawQWDz423CU67-16" target="Muw8rnbawQWDz423CU67-17">
          <mxGeometry relative="1" as="geometry">
            <Array as="points">
              <mxPoint x="605" y="320" />
              <mxPoint x="605" y="1300" />
            </Array>
          </mxGeometry>
        </mxCell>
        <mxCell id="Muw8rnbawQWDz423CU67-15" value="否" style="edgeLabel;html=1;align=center;verticalAlign=middle;resizable=0;points=[];" vertex="1" connectable="0" parent="Muw8rnbawQWDz423CU67-14">
          <mxGeometry x="-0.341" y="2" relative="1" as="geometry">
            <mxPoint as="offset" />
          </mxGeometry>
        </mxCell>
        <mxCell id="Muw8rnbawQWDz423CU67-16" value="判断文件类型是否excel文件" style="rhombus;whiteSpace=wrap;html=1;" vertex="1" parent="1">
          <mxGeometry x="255" y="280" width="330" height="80" as="geometry" />
        </mxCell>
        <mxCell id="Muw8rnbawQWDz423CU67-17" value="结束" style="ellipse;whiteSpace=wrap;html=1;" vertex="1" parent="1">
          <mxGeometry x="360" y="1260" width="120" height="80" as="geometry" />
        </mxCell>
        <mxCell id="Muw8rnbawQWDz423CU67-20" style="edgeStyle=orthogonalEdgeStyle;rounded=0;orthogonalLoop=1;jettySize=auto;html=1;" edge="1" parent="1" source="Muw8rnbawQWDz423CU67-21" target="Muw8rnbawQWDz423CU67-23">
          <mxGeometry relative="1" as="geometry" />
        </mxCell>
        <mxCell id="Muw8rnbawQWDz423CU67-21" value="设置解析规则" style="rounded=0;whiteSpace=wrap;html=1;" vertex="1" parent="1">
          <mxGeometry x="900" y="110" width="120" height="60" as="geometry" />
        </mxCell>
        <mxCell id="Muw8rnbawQWDz423CU67-22" style="edgeStyle=orthogonalEdgeStyle;rounded=0;orthogonalLoop=1;jettySize=auto;html=1;entryX=0.5;entryY=0;entryDx=0;entryDy=0;" edge="1" parent="1" source="Muw8rnbawQWDz423CU67-23" target="Muw8rnbawQWDz423CU67-50">
          <mxGeometry relative="1" as="geometry" />
        </mxCell>
        <mxCell id="Muw8rnbawQWDz423CU67-23" value="提交规则设置，勾选的树形结构需要保留原结构（文件UUID、文件名称、所勾选sheet名称）" style="rounded=0;whiteSpace=wrap;html=1;" vertex="1" parent="1">
          <mxGeometry x="820" y="260" width="280" height="60" as="geometry" />
        </mxCell>
        <mxCell id="Muw8rnbawQWDz423CU67-24" style="edgeStyle=orthogonalEdgeStyle;rounded=0;orthogonalLoop=1;jettySize=auto;html=1;entryX=1;entryY=0.5;entryDx=0;entryDy=0;" edge="1" parent="1" source="Muw8rnbawQWDz423CU67-27" target="Muw8rnbawQWDz423CU67-33">
          <mxGeometry relative="1" as="geometry">
            <Array as="points">
              <mxPoint x="1140" y="1070" />
              <mxPoint x="1140" y="910" />
            </Array>
          </mxGeometry>
        </mxCell>
        <mxCell id="Muw8rnbawQWDz423CU67-25" value="否" style="edgeLabel;html=1;align=center;verticalAlign=middle;resizable=0;points=[];" vertex="1" connectable="0" parent="Muw8rnbawQWDz423CU67-24">
          <mxGeometry x="-0.2568" y="2" relative="1" as="geometry">
            <mxPoint as="offset" />
          </mxGeometry>
        </mxCell>
        <mxCell id="Muw8rnbawQWDz423CU67-26" style="edgeStyle=orthogonalEdgeStyle;rounded=0;orthogonalLoop=1;jettySize=auto;html=1;entryX=0.5;entryY=0;entryDx=0;entryDy=0;" edge="1" parent="1" source="Muw8rnbawQWDz423CU67-27" target="Muw8rnbawQWDz423CU67-35">
          <mxGeometry relative="1" as="geometry" />
        </mxCell>
        <mxCell id="Muw8rnbawQWDz423CU67-27" value="判断是否达到设置的推断基准百分比" style="rhombus;whiteSpace=wrap;html=1;" vertex="1" parent="1">
          <mxGeometry x="820" y="1030" width="280" height="80" as="geometry" />
        </mxCell>
        <mxCell id="Muw8rnbawQWDz423CU67-28" style="edgeStyle=orthogonalEdgeStyle;rounded=0;orthogonalLoop=1;jettySize=auto;html=1;entryX=0.5;entryY=0;entryDx=0;entryDy=0;" edge="1" parent="1" source="Muw8rnbawQWDz423CU67-29" target="Muw8rnbawQWDz423CU67-31">
          <mxGeometry relative="1" as="geometry" />
        </mxCell>
        <mxCell id="Muw8rnbawQWDz423CU67-29" value="根据&lt;b&gt;配置&lt;/b&gt;读取归类内首个文件首个sheet数据或csv" style="rounded=0;whiteSpace=wrap;html=1;" vertex="1" parent="1">
          <mxGeometry x="825" y="630" width="270" height="60" as="geometry" />
        </mxCell>
        <mxCell id="Muw8rnbawQWDz423CU67-30" style="edgeStyle=orthogonalEdgeStyle;rounded=0;orthogonalLoop=1;jettySize=auto;html=1;entryX=0.5;entryY=0;entryDx=0;entryDy=0;" edge="1" parent="1" source="Muw8rnbawQWDz423CU67-31" target="Muw8rnbawQWDz423CU67-33">
          <mxGeometry relative="1" as="geometry" />
        </mxCell>
        <mxCell id="Muw8rnbawQWDz423CU67-31" value="根据字段名行生成模型字段" style="rounded=0;whiteSpace=wrap;html=1;" vertex="1" parent="1">
          <mxGeometry x="860" y="750" width="200" height="60" as="geometry" />
        </mxCell>
        <mxCell id="Muw8rnbawQWDz423CU67-32" style="edgeStyle=orthogonalEdgeStyle;rounded=0;orthogonalLoop=1;jettySize=auto;html=1;" edge="1" parent="1" source="Muw8rnbawQWDz423CU67-33" target="Muw8rnbawQWDz423CU67-27">
          <mxGeometry relative="1" as="geometry" />
        </mxCell>
        <mxCell id="Muw8rnbawQWDz423CU67-33" value="&lt;span&gt;根据列抽样数据行判断模型字段类型&lt;/span&gt;" style="rounded=0;whiteSpace=wrap;html=1;" vertex="1" parent="1">
          <mxGeometry x="850" y="880" width="220" height="60" as="geometry" />
        </mxCell>
        <mxCell id="Muw8rnbawQWDz423CU67-34" style="edgeStyle=orthogonalEdgeStyle;rounded=0;orthogonalLoop=1;jettySize=auto;html=1;" edge="1" parent="1" source="Muw8rnbawQWDz423CU67-35" target="Muw8rnbawQWDz423CU67-39">
          <mxGeometry relative="1" as="geometry" />
        </mxCell>
        <mxCell id="Muw8rnbawQWDz423CU67-35" value="记录模型字段属性" style="rounded=0;whiteSpace=wrap;html=1;" vertex="1" parent="1">
          <mxGeometry x="840" y="1170" width="240" height="60" as="geometry" />
        </mxCell>
        <mxCell id="Muw8rnbawQWDz423CU67-36" style="edgeStyle=orthogonalEdgeStyle;rounded=0;orthogonalLoop=1;jettySize=auto;html=1;entryX=0;entryY=0.5;entryDx=0;entryDy=0;" edge="1" parent="1" source="Muw8rnbawQWDz423CU67-39" target="Muw8rnbawQWDz423CU67-33">
          <mxGeometry relative="1" as="geometry">
            <Array as="points">
              <mxPoint x="750" y="1340" />
              <mxPoint x="750" y="910" />
            </Array>
          </mxGeometry>
        </mxCell>
        <mxCell id="Muw8rnbawQWDz423CU67-37" value="否" style="edgeLabel;html=1;align=center;verticalAlign=middle;resizable=0;points=[];" vertex="1" connectable="0" parent="Muw8rnbawQWDz423CU67-36">
          <mxGeometry x="-0.1962" relative="1" as="geometry">
            <mxPoint as="offset" />
          </mxGeometry>
        </mxCell>
        <mxCell id="Muw8rnbawQWDz423CU67-38" value="是" style="edgeStyle=orthogonalEdgeStyle;rounded=0;orthogonalLoop=1;jettySize=auto;html=1;" edge="1" parent="1" source="Muw8rnbawQWDz423CU67-39" target="Muw8rnbawQWDz423CU67-41">
          <mxGeometry relative="1" as="geometry" />
        </mxCell>
        <mxCell id="Muw8rnbawQWDz423CU67-39" value="是否循环完所有列" style="rhombus;whiteSpace=wrap;html=1;" vertex="1" parent="1">
          <mxGeometry x="780" y="1300" width="360" height="80" as="geometry" />
        </mxCell>
        <mxCell id="Muw8rnbawQWDz423CU67-40" style="edgeStyle=orthogonalEdgeStyle;rounded=0;orthogonalLoop=1;jettySize=auto;html=1;entryX=0.5;entryY=0;entryDx=0;entryDy=0;" edge="1" parent="1" source="Muw8rnbawQWDz423CU67-41" target="Muw8rnbawQWDz423CU67-45">
          <mxGeometry relative="1" as="geometry" />
        </mxCell>
        <mxCell id="Muw8rnbawQWDz423CU67-41" value="记录模型字段列表" style="rounded=0;whiteSpace=wrap;html=1;" vertex="1" parent="1">
          <mxGeometry x="805" y="1460" width="310" height="60" as="geometry" />
        </mxCell>
        <mxCell id="Muw8rnbawQWDz423CU67-42" style="edgeStyle=orthogonalEdgeStyle;rounded=0;orthogonalLoop=1;jettySize=auto;html=1;entryX=1;entryY=0.5;entryDx=0;entryDy=0;" edge="1" parent="1" source="Muw8rnbawQWDz423CU67-45" target="Muw8rnbawQWDz423CU67-52">
          <mxGeometry relative="1" as="geometry">
            <Array as="points">
              <mxPoint x="1250" y="1620" />
              <mxPoint x="1250" y="530" />
            </Array>
          </mxGeometry>
        </mxCell>
        <mxCell id="Muw8rnbawQWDz423CU67-43" value="否" style="edgeLabel;html=1;align=center;verticalAlign=middle;resizable=0;points=[];" vertex="1" connectable="0" parent="Muw8rnbawQWDz423CU67-42">
          <mxGeometry x="0.1624" y="-4" relative="1" as="geometry">
            <mxPoint y="1" as="offset" />
          </mxGeometry>
        </mxCell>
        <mxCell id="Muw8rnbawQWDz423CU67-44" value="是" style="edgeStyle=orthogonalEdgeStyle;rounded=0;orthogonalLoop=1;jettySize=auto;html=1;" edge="1" parent="1" source="Muw8rnbawQWDz423CU67-45" target="Muw8rnbawQWDz423CU67-47">
          <mxGeometry relative="1" as="geometry" />
        </mxCell>
        <mxCell id="Muw8rnbawQWDz423CU67-45" value="是否循环完所有归类" style="rhombus;whiteSpace=wrap;html=1;" vertex="1" parent="1">
          <mxGeometry x="762.5" y="1580" width="395" height="80" as="geometry" />
        </mxCell>
        <mxCell id="Muw8rnbawQWDz423CU67-46" style="edgeStyle=orthogonalEdgeStyle;rounded=0;orthogonalLoop=1;jettySize=auto;html=1;entryX=0.5;entryY=0;entryDx=0;entryDy=0;" edge="1" parent="1" source="Muw8rnbawQWDz423CU67-47" target="Muw8rnbawQWDz423CU67-48">
          <mxGeometry relative="1" as="geometry" />
        </mxCell>
        <mxCell id="Muw8rnbawQWDz423CU67-47" value="返回模型列表（每个元素对象包含唯一标识、名称、是否重复标志、字段列表）" style="rounded=0;whiteSpace=wrap;html=1;" vertex="1" parent="1">
          <mxGeometry x="820" y="1750" width="280" height="60" as="geometry" />
        </mxCell>
        <mxCell id="Muw8rnbawQWDz423CU67-48" value="结束" style="ellipse;whiteSpace=wrap;html=1;" vertex="1" parent="1">
          <mxGeometry x="900" y="1890" width="120" height="80" as="geometry" />
        </mxCell>
        <mxCell id="Muw8rnbawQWDz423CU67-49" style="edgeStyle=orthogonalEdgeStyle;rounded=0;orthogonalLoop=1;jettySize=auto;html=1;entryX=0.5;entryY=0;entryDx=0;entryDy=0;" edge="1" parent="1" source="Muw8rnbawQWDz423CU67-50" target="Muw8rnbawQWDz423CU67-52">
          <mxGeometry relative="1" as="geometry" />
        </mxCell>
        <mxCell id="Muw8rnbawQWDz423CU67-50" value="根据前端传入的二维数组列表、一维数组中每个元素为一个归类、二维数组为每个归类所勾选的sheet以及文件UUId数据" style="rounded=0;whiteSpace=wrap;html=1;" vertex="1" parent="1">
          <mxGeometry x="820" y="370" width="280" height="60" as="geometry" />
        </mxCell>
        <mxCell id="Muw8rnbawQWDz423CU67-51" style="edgeStyle=orthogonalEdgeStyle;rounded=0;orthogonalLoop=1;jettySize=auto;html=1;entryX=0.5;entryY=0;entryDx=0;entryDy=0;" edge="1" parent="1" source="Muw8rnbawQWDz423CU67-52" target="Muw8rnbawQWDz423CU67-29">
          <mxGeometry relative="1" as="geometry" />
        </mxCell>
        <mxCell id="Muw8rnbawQWDz423CU67-52" value="遍历数组" style="rounded=0;whiteSpace=wrap;html=1;" vertex="1" parent="1">
          <mxGeometry x="900" y="500" width="120" height="60" as="geometry" />
        </mxCell>
        <mxCell id="Muw8rnbawQWDz423CU67-62" style="edgeStyle=orthogonalEdgeStyle;rounded=0;orthogonalLoop=1;jettySize=auto;html=1;exitX=0.5;exitY=1;exitDx=0;exitDy=0;" edge="1" parent="1" source="Muw8rnbawQWDz423CU67-61" target="Muw8rnbawQWDz423CU67-86">
          <mxGeometry relative="1" as="geometry">
            <mxPoint x="1929.8823529411766" y="230" as="targetPoint" />
          </mxGeometry>
        </mxCell>
        <mxCell id="Muw8rnbawQWDz423CU67-61" value="步骤1.提交&lt;br&gt;修改后的模型列表(唯一标识、名称、字段列表)&lt;br&gt;数据" style="rounded=0;whiteSpace=wrap;html=1;" vertex="1" parent="1">
          <mxGeometry x="1857.5" y="110" width="145" height="60" as="geometry" />
        </mxCell>
        <mxCell id="Muw8rnbawQWDz423CU67-67" style="edgeStyle=orthogonalEdgeStyle;rounded=0;orthogonalLoop=1;jettySize=auto;html=1;exitX=0.5;exitY=1;exitDx=0;exitDy=0;" edge="1" parent="1" source="Muw8rnbawQWDz423CU67-66" target="Muw8rnbawQWDz423CU67-8">
          <mxGeometry relative="1" as="geometry" />
        </mxCell>
        <mxCell id="Muw8rnbawQWDz423CU67-66" value="将文件存储到指定文件夹路径下，按照日期分文件夹" style="rounded=0;whiteSpace=wrap;html=1;" vertex="1" parent="1">
          <mxGeometry x="360" y="790" width="120" height="60" as="geometry" />
        </mxCell>
        <mxCell id="Muw8rnbawQWDz423CU67-75" style="rounded=0;orthogonalLoop=1;jettySize=auto;html=1;entryX=-0.008;entryY=0.628;entryDx=0;entryDy=0;dashed=1;endArrow=none;endFill=0;entryPerimeter=0;" edge="1" parent="1" source="Muw8rnbawQWDz423CU67-73" target="Muw8rnbawQWDz423CU67-66">
          <mxGeometry relative="1" as="geometry" />
        </mxCell>
        <mxCell id="Muw8rnbawQWDz423CU67-73" value="系统上有指定的目录存放根据&lt;br&gt;模版新增模型的excel文件" style="shape=note;whiteSpace=wrap;html=1;backgroundOutline=1;darkOpacity=0.05;" vertex="1" parent="1">
          <mxGeometry x="120" y="745" width="200" height="70" as="geometry" />
        </mxCell>
        <mxCell id="Muw8rnbawQWDz423CU67-78" style="rounded=0;orthogonalLoop=1;jettySize=auto;html=1;exitX=1;exitY=1;exitDx=0;exitDy=0;exitPerimeter=0;entryX=0;entryY=0.5;entryDx=0;entryDy=0;endArrow=none;endFill=0;dashed=1;" edge="1" parent="1" source="Muw8rnbawQWDz423CU67-77" target="Muw8rnbawQWDz423CU67-29">
          <mxGeometry relative="1" as="geometry" />
        </mxCell>
        <mxCell id="Muw8rnbawQWDz423CU67-77" value="字段名行&lt;br&gt;数据行&lt;br&gt;最后数据行&lt;br&gt;deng" style="shape=note;whiteSpace=wrap;html=1;backgroundOutline=1;darkOpacity=0.05;" vertex="1" parent="1">
          <mxGeometry x="670" y="590" width="120" height="60" as="geometry" />
        </mxCell>
        <mxCell id="Muw8rnbawQWDz423CU67-81" style="edgeStyle=orthogonalEdgeStyle;rounded=0;orthogonalLoop=1;jettySize=auto;html=1;entryX=0.5;entryY=0;entryDx=0;entryDy=0;" edge="1" parent="1" source="Muw8rnbawQWDz423CU67-80" target="Muw8rnbawQWDz423CU67-17">
          <mxGeometry relative="1" as="geometry" />
        </mxCell>
        <mxCell id="Muw8rnbawQWDz423CU67-80" value="前端获取到文件信息用于绑定哪个文件归类" style="rounded=0;whiteSpace=wrap;html=1;" vertex="1" parent="1">
          <mxGeometry x="360" y="1110" width="120" height="60" as="geometry" />
        </mxCell>
        <mxCell id="Muw8rnbawQWDz423CU67-82" value="前端解析文件获取sheet列表" style="shape=note;whiteSpace=wrap;html=1;backgroundOutline=1;darkOpacity=0.05;" vertex="1" parent="1">
          <mxGeometry x="670" y="190" width="120" height="60" as="geometry" />
        </mxCell>
        <mxCell id="Muw8rnbawQWDz423CU67-84" style="rounded=0;orthogonalLoop=1;jettySize=auto;html=1;exitX=0;exitY=0;exitDx=120;exitDy=45;exitPerimeter=0;entryX=0;entryY=0.5;entryDx=0;entryDy=0;endArrow=none;endFill=0;dashed=1;" edge="1" parent="1" source="Muw8rnbawQWDz423CU67-82" target="Muw8rnbawQWDz423CU67-23">
          <mxGeometry relative="1" as="geometry">
            <mxPoint x="800" y="660" as="sourcePoint" />
            <mxPoint x="835" y="670" as="targetPoint" />
          </mxGeometry>
        </mxCell>
        <mxCell id="Muw8rnbawQWDz423CU67-116" style="edgeStyle=orthogonalEdgeStyle;rounded=0;orthogonalLoop=1;jettySize=auto;html=1;exitX=0.5;exitY=1;exitDx=0;exitDy=0;" edge="1" parent="1" source="Muw8rnbawQWDz423CU67-86" target="Muw8rnbawQWDz423CU67-115">
          <mxGeometry relative="1" as="geometry" />
        </mxCell>
        <mxCell id="Muw8rnbawQWDz423CU67-86" value="模型、模型字段入库" style="rounded=0;whiteSpace=wrap;html=1;" vertex="1" parent="1">
          <mxGeometry x="1870" y="220" width="120" height="60" as="geometry" />
        </mxCell>
        <mxCell id="Muw8rnbawQWDz423CU67-89" style="edgeStyle=orthogonalEdgeStyle;rounded=0;orthogonalLoop=1;jettySize=auto;html=1;exitX=0.5;exitY=1;exitDx=0;exitDy=0;" edge="1" parent="1" source="Muw8rnbawQWDz423CU67-88" target="Muw8rnbawQWDz423CU67-91">
          <mxGeometry relative="1" as="geometry">
            <mxPoint x="1929.7241379310344" y="620" as="targetPoint" />
          </mxGeometry>
        </mxCell>
        <mxCell id="Muw8rnbawQWDz423CU67-88" value="记录失败或成功状态返回前端" style="rounded=0;whiteSpace=wrap;html=1;" vertex="1" parent="1">
          <mxGeometry x="1870" y="480" width="120" height="60" as="geometry" />
        </mxCell>
        <mxCell id="Muw8rnbawQWDz423CU67-92" style="edgeStyle=orthogonalEdgeStyle;rounded=0;orthogonalLoop=1;jettySize=auto;html=1;exitX=0.5;exitY=1;exitDx=0;exitDy=0;" edge="1" parent="1" source="Muw8rnbawQWDz423CU67-91">
          <mxGeometry relative="1" as="geometry">
            <mxPoint x="1930" y="770" as="targetPoint" />
          </mxGeometry>
        </mxCell>
        <mxCell id="Muw8rnbawQWDz423CU67-94" value="是" style="edgeLabel;html=1;align=center;verticalAlign=middle;resizable=0;points=[];" vertex="1" connectable="0" parent="Muw8rnbawQWDz423CU67-92">
          <mxGeometry x="-0.5969" y="-1" relative="1" as="geometry">
            <mxPoint as="offset" />
          </mxGeometry>
        </mxCell>
        <mxCell id="Muw8rnbawQWDz423CU67-97" style="edgeStyle=orthogonalEdgeStyle;rounded=0;orthogonalLoop=1;jettySize=auto;html=1;exitX=0;exitY=0.5;exitDx=0;exitDy=0;entryX=0.5;entryY=1;entryDx=0;entryDy=0;" edge="1" parent="1" source="Muw8rnbawQWDz423CU67-91" target="Muw8rnbawQWDz423CU67-96">
          <mxGeometry relative="1" as="geometry" />
        </mxCell>
        <mxCell id="Muw8rnbawQWDz423CU67-150" value="否" style="edgeLabel;html=1;align=center;verticalAlign=middle;resizable=0;points=[];" vertex="1" connectable="0" parent="Muw8rnbawQWDz423CU67-97">
          <mxGeometry x="-0.5893" y="-1" relative="1" as="geometry">
            <mxPoint as="offset" />
          </mxGeometry>
        </mxCell>
        <mxCell id="Muw8rnbawQWDz423CU67-91" value="是否成功" style="rhombus;whiteSpace=wrap;html=1;" vertex="1" parent="1">
          <mxGeometry x="1890" y="620" width="80" height="80" as="geometry" />
        </mxCell>
        <mxCell id="Muw8rnbawQWDz423CU67-99" style="edgeStyle=orthogonalEdgeStyle;rounded=0;orthogonalLoop=1;jettySize=auto;html=1;exitX=0.5;exitY=1;exitDx=0;exitDy=0;entryX=0.5;entryY=0;entryDx=0;entryDy=0;" edge="1" parent="1" source="Muw8rnbawQWDz423CU67-93" target="Muw8rnbawQWDz423CU67-100">
          <mxGeometry relative="1" as="geometry">
            <mxPoint x="1930" y="920" as="targetPoint" />
          </mxGeometry>
        </mxCell>
        <mxCell id="Muw8rnbawQWDz423CU67-93" value="提交关联关系参数" style="rounded=0;whiteSpace=wrap;html=1;" vertex="1" parent="1">
          <mxGeometry x="1870" y="770" width="120" height="60" as="geometry" />
        </mxCell>
        <mxCell id="Muw8rnbawQWDz423CU67-98" style="edgeStyle=orthogonalEdgeStyle;rounded=0;orthogonalLoop=1;jettySize=auto;html=1;exitX=0.5;exitY=0;exitDx=0;exitDy=0;entryX=1;entryY=0.5;entryDx=0;entryDy=0;" edge="1" parent="1" source="Muw8rnbawQWDz423CU67-96" target="Muw8rnbawQWDz423CU67-105">
          <mxGeometry relative="1" as="geometry">
            <mxPoint x="1660" y="320" as="targetPoint" />
          </mxGeometry>
        </mxCell>
        <mxCell id="Muw8rnbawQWDz423CU67-96" value="获取返回失败的模型列表" style="rounded=0;whiteSpace=wrap;html=1;" vertex="1" parent="1">
          <mxGeometry x="1710" y="450" width="120" height="60" as="geometry" />
        </mxCell>
        <mxCell id="Muw8rnbawQWDz423CU67-103" style="edgeStyle=orthogonalEdgeStyle;rounded=0;orthogonalLoop=1;jettySize=auto;html=1;exitX=0.5;exitY=1;exitDx=0;exitDy=0;entryX=0.5;entryY=0;entryDx=0;entryDy=0;" edge="1" parent="1" source="Muw8rnbawQWDz423CU67-100" target="Muw8rnbawQWDz423CU67-101">
          <mxGeometry relative="1" as="geometry" />
        </mxCell>
        <mxCell id="Muw8rnbawQWDz423CU67-100" value="模型关联入库" style="rounded=0;whiteSpace=wrap;html=1;" vertex="1" parent="1">
          <mxGeometry x="1870" y="900" width="120" height="60" as="geometry" />
        </mxCell>
        <mxCell id="Muw8rnbawQWDz423CU67-104" style="edgeStyle=orthogonalEdgeStyle;rounded=0;orthogonalLoop=1;jettySize=auto;html=1;exitX=0.5;exitY=1;exitDx=0;exitDy=0;" edge="1" parent="1" source="Muw8rnbawQWDz423CU67-101">
          <mxGeometry relative="1" as="geometry">
            <mxPoint x="1930" y="1149.9999999999998" as="targetPoint" />
          </mxGeometry>
        </mxCell>
        <mxCell id="Muw8rnbawQWDz423CU67-101" value="记录失败或成功状态返回前端" style="rounded=0;whiteSpace=wrap;html=1;" vertex="1" parent="1">
          <mxGeometry x="1870" y="1020" width="120" height="60" as="geometry" />
        </mxCell>
        <mxCell id="Muw8rnbawQWDz423CU67-106" style="edgeStyle=orthogonalEdgeStyle;rounded=0;orthogonalLoop=1;jettySize=auto;html=1;exitX=0.5;exitY=0;exitDx=0;exitDy=0;entryX=0;entryY=0.5;entryDx=0;entryDy=0;" edge="1" parent="1" source="Muw8rnbawQWDz423CU67-105" target="Muw8rnbawQWDz423CU67-61">
          <mxGeometry relative="1" as="geometry" />
        </mxCell>
        <mxCell id="Muw8rnbawQWDz423CU67-110" value="是" style="edgeLabel;html=1;align=center;verticalAlign=middle;resizable=0;points=[];" vertex="1" connectable="0" parent="Muw8rnbawQWDz423CU67-106">
          <mxGeometry x="-0.7115" y="2" relative="1" as="geometry">
            <mxPoint as="offset" />
          </mxGeometry>
        </mxCell>
        <mxCell id="Muw8rnbawQWDz423CU67-105" value="是否重试" style="rhombus;whiteSpace=wrap;html=1;" vertex="1" parent="1">
          <mxGeometry x="1620" y="240" width="80" height="80" as="geometry" />
        </mxCell>
        <mxCell id="Muw8rnbawQWDz423CU67-108" value="结束" style="ellipse;whiteSpace=wrap;html=1;aspect=fixed;" vertex="1" parent="1">
          <mxGeometry x="1470" y="900" width="80" height="80" as="geometry" />
        </mxCell>
        <mxCell id="Muw8rnbawQWDz423CU67-112" value="" style="edgeStyle=orthogonalEdgeStyle;rounded=0;orthogonalLoop=1;jettySize=auto;html=1;exitX=0;exitY=0.5;exitDx=0;exitDy=0;entryX=0.5;entryY=0;entryDx=0;entryDy=0;" edge="1" parent="1" source="Muw8rnbawQWDz423CU67-105" target="Muw8rnbawQWDz423CU67-111">
          <mxGeometry relative="1" as="geometry">
            <mxPoint x="1510" y="900" as="targetPoint" />
            <mxPoint x="1620" y="280" as="sourcePoint" />
          </mxGeometry>
        </mxCell>
        <mxCell id="Muw8rnbawQWDz423CU67-113" value="否" style="edgeLabel;html=1;align=center;verticalAlign=middle;resizable=0;points=[];" vertex="1" connectable="0" parent="Muw8rnbawQWDz423CU67-112">
          <mxGeometry x="-0.753" y="-1" relative="1" as="geometry">
            <mxPoint as="offset" />
          </mxGeometry>
        </mxCell>
        <mxCell id="Muw8rnbawQWDz423CU67-114" style="edgeStyle=orthogonalEdgeStyle;rounded=0;orthogonalLoop=1;jettySize=auto;html=1;exitX=0.5;exitY=1;exitDx=0;exitDy=0;" edge="1" parent="1" source="Muw8rnbawQWDz423CU67-111" target="Muw8rnbawQWDz423CU67-108">
          <mxGeometry relative="1" as="geometry" />
        </mxCell>
        <mxCell id="Muw8rnbawQWDz423CU67-111" value="解锁模型" style="rounded=0;whiteSpace=wrap;html=1;" vertex="1" parent="1">
          <mxGeometry x="1450" y="720" width="120" height="60" as="geometry" />
        </mxCell>
        <mxCell id="Muw8rnbawQWDz423CU67-117" style="edgeStyle=orthogonalEdgeStyle;rounded=0;orthogonalLoop=1;jettySize=auto;html=1;exitX=0.5;exitY=1;exitDx=0;exitDy=0;entryX=0.5;entryY=0;entryDx=0;entryDy=0;" edge="1" parent="1" source="Muw8rnbawQWDz423CU67-115" target="Muw8rnbawQWDz423CU67-88">
          <mxGeometry relative="1" as="geometry" />
        </mxCell>
        <mxCell id="Muw8rnbawQWDz423CU67-115" value="锁定模型" style="rounded=0;whiteSpace=wrap;html=1;" vertex="1" parent="1">
          <mxGeometry x="1870" y="350" width="120" height="60" as="geometry" />
        </mxCell>
        <mxCell id="Muw8rnbawQWDz423CU67-119" style="edgeStyle=orthogonalEdgeStyle;rounded=0;orthogonalLoop=1;jettySize=auto;html=1;exitX=0.5;exitY=1;exitDx=0;exitDy=0;" edge="1" parent="1" source="Muw8rnbawQWDz423CU67-118">
          <mxGeometry relative="1" as="geometry">
            <mxPoint x="1930.3333333333335" y="1309.9999999999998" as="targetPoint" />
          </mxGeometry>
        </mxCell>
        <mxCell id="Muw8rnbawQWDz423CU67-152" value="是" style="edgeLabel;html=1;align=center;verticalAlign=middle;resizable=0;points=[];" vertex="1" connectable="0" parent="Muw8rnbawQWDz423CU67-119">
          <mxGeometry x="-0.4611" relative="1" as="geometry">
            <mxPoint as="offset" />
          </mxGeometry>
        </mxCell>
        <mxCell id="Muw8rnbawQWDz423CU67-122" style="edgeStyle=orthogonalEdgeStyle;rounded=0;orthogonalLoop=1;jettySize=auto;html=1;exitX=0;exitY=0.5;exitDx=0;exitDy=0;entryX=0.5;entryY=1;entryDx=0;entryDy=0;" edge="1" parent="1" source="Muw8rnbawQWDz423CU67-118" target="Muw8rnbawQWDz423CU67-105">
          <mxGeometry relative="1" as="geometry" />
        </mxCell>
        <mxCell id="Muw8rnbawQWDz423CU67-151" value="否" style="edgeLabel;html=1;align=center;verticalAlign=middle;resizable=0;points=[];" vertex="1" connectable="0" parent="Muw8rnbawQWDz423CU67-122">
          <mxGeometry x="-0.9055" y="-2" relative="1" as="geometry">
            <mxPoint as="offset" />
          </mxGeometry>
        </mxCell>
        <mxCell id="Muw8rnbawQWDz423CU67-118" value="是否成功" style="rhombus;whiteSpace=wrap;html=1;" vertex="1" parent="1">
          <mxGeometry x="1890" y="1150" width="80" height="80" as="geometry" />
        </mxCell>
        <mxCell id="Muw8rnbawQWDz423CU67-124" style="edgeStyle=orthogonalEdgeStyle;rounded=0;orthogonalLoop=1;jettySize=auto;html=1;exitX=0.5;exitY=1;exitDx=0;exitDy=0;" edge="1" parent="1" source="Muw8rnbawQWDz423CU67-120" target="Muw8rnbawQWDz423CU67-123">
          <mxGeometry relative="1" as="geometry" />
        </mxCell>
        <mxCell id="Muw8rnbawQWDz423CU67-120" value="提交关联发现规则参数" style="rounded=0;whiteSpace=wrap;html=1;" vertex="1" parent="1">
          <mxGeometry x="1870" y="1310" width="120" height="60" as="geometry" />
        </mxCell>
        <mxCell id="Muw8rnbawQWDz423CU67-126" style="edgeStyle=orthogonalEdgeStyle;rounded=0;orthogonalLoop=1;jettySize=auto;html=1;exitX=0.5;exitY=1;exitDx=0;exitDy=0;" edge="1" parent="1" source="Muw8rnbawQWDz423CU67-123" target="Muw8rnbawQWDz423CU67-125">
          <mxGeometry relative="1" as="geometry" />
        </mxCell>
        <mxCell id="Muw8rnbawQWDz423CU67-123" value="关联发现写入MongoDB" style="rounded=0;whiteSpace=wrap;html=1;" vertex="1" parent="1">
          <mxGeometry x="1870" y="1420" width="120" height="60" as="geometry" />
        </mxCell>
        <mxCell id="Muw8rnbawQWDz423CU67-128" style="edgeStyle=orthogonalEdgeStyle;rounded=0;orthogonalLoop=1;jettySize=auto;html=1;exitX=0.5;exitY=1;exitDx=0;exitDy=0;" edge="1" parent="1" source="Muw8rnbawQWDz423CU67-125" target="Muw8rnbawQWDz423CU67-127">
          <mxGeometry relative="1" as="geometry" />
        </mxCell>
        <mxCell id="Muw8rnbawQWDz423CU67-125" value="记录失败或成功状态返回前端" style="rounded=0;whiteSpace=wrap;html=1;" vertex="1" parent="1">
          <mxGeometry x="1870" y="1520" width="120" height="60" as="geometry" />
        </mxCell>
        <mxCell id="Muw8rnbawQWDz423CU67-129" style="edgeStyle=orthogonalEdgeStyle;rounded=0;orthogonalLoop=1;jettySize=auto;html=1;exitX=0;exitY=0.5;exitDx=0;exitDy=0;entryX=0.5;entryY=1;entryDx=0;entryDy=0;" edge="1" parent="1" source="Muw8rnbawQWDz423CU67-127" target="Muw8rnbawQWDz423CU67-105">
          <mxGeometry relative="1" as="geometry" />
        </mxCell>
        <mxCell id="Muw8rnbawQWDz423CU67-130" style="edgeStyle=orthogonalEdgeStyle;rounded=0;orthogonalLoop=1;jettySize=auto;html=1;exitX=0.5;exitY=1;exitDx=0;exitDy=0;" edge="1" parent="1" source="Muw8rnbawQWDz423CU67-127">
          <mxGeometry relative="1" as="geometry">
            <mxPoint x="1930" y="1760" as="targetPoint" />
          </mxGeometry>
        </mxCell>
        <mxCell id="Muw8rnbawQWDz423CU67-127" value="是否成功" style="rhombus;whiteSpace=wrap;html=1;" vertex="1" parent="1">
          <mxGeometry x="1890" y="1620" width="80" height="80" as="geometry" />
        </mxCell>
        <mxCell id="Muw8rnbawQWDz423CU67-132" style="edgeStyle=orthogonalEdgeStyle;rounded=0;orthogonalLoop=1;jettySize=auto;html=1;exitX=0.5;exitY=1;exitDx=0;exitDy=0;" edge="1" parent="1" source="Muw8rnbawQWDz423CU67-131">
          <mxGeometry relative="1" as="geometry">
            <mxPoint x="1930" y="1880" as="targetPoint" />
          </mxGeometry>
        </mxCell>
        <mxCell id="Muw8rnbawQWDz423CU67-131" value="导入数据" style="rounded=0;whiteSpace=wrap;html=1;" vertex="1" parent="1">
          <mxGeometry x="1870" y="1760" width="120" height="60" as="geometry" />
        </mxCell>
        <mxCell id="Muw8rnbawQWDz423CU67-134" style="edgeStyle=orthogonalEdgeStyle;rounded=0;orthogonalLoop=1;jettySize=auto;html=1;exitX=0.5;exitY=1;exitDx=0;exitDy=0;" edge="1" parent="1" source="Muw8rnbawQWDz423CU67-133">
          <mxGeometry relative="1" as="geometry">
            <mxPoint x="1930" y="2010" as="targetPoint" />
          </mxGeometry>
        </mxCell>
        <mxCell id="Muw8rnbawQWDz423CU67-133" value="根据模型关联的excel所勾选的sheet页进行数据的读取写入" style="rounded=0;whiteSpace=wrap;html=1;" vertex="1" parent="1">
          <mxGeometry x="1870" y="1880" width="120" height="60" as="geometry" />
        </mxCell>
        <mxCell id="Muw8rnbawQWDz423CU67-137" style="edgeStyle=orthogonalEdgeStyle;rounded=0;orthogonalLoop=1;jettySize=auto;html=1;exitX=0;exitY=0.5;exitDx=0;exitDy=0;entryX=0;entryY=0.5;entryDx=0;entryDy=0;" edge="1" parent="1" source="Muw8rnbawQWDz423CU67-136" target="Muw8rnbawQWDz423CU67-133">
          <mxGeometry relative="1" as="geometry">
            <Array as="points">
              <mxPoint x="1660" y="2050" />
              <mxPoint x="1660" y="1910" />
            </Array>
          </mxGeometry>
        </mxCell>
        <mxCell id="Muw8rnbawQWDz423CU67-138" style="edgeStyle=orthogonalEdgeStyle;rounded=0;orthogonalLoop=1;jettySize=auto;html=1;exitX=0.5;exitY=1;exitDx=0;exitDy=0;" edge="1" parent="1" source="Muw8rnbawQWDz423CU67-136" target="Muw8rnbawQWDz423CU67-139">
          <mxGeometry relative="1" as="geometry">
            <mxPoint x="1930" y="2140" as="targetPoint" />
          </mxGeometry>
        </mxCell>
        <mxCell id="Muw8rnbawQWDz423CU67-136" value="是否读写完成" style="rhombus;whiteSpace=wrap;html=1;" vertex="1" parent="1">
          <mxGeometry x="1890" y="2010" width="80" height="80" as="geometry" />
        </mxCell>
        <mxCell id="Muw8rnbawQWDz423CU67-140" style="edgeStyle=orthogonalEdgeStyle;rounded=0;orthogonalLoop=1;jettySize=auto;html=1;exitX=0.5;exitY=1;exitDx=0;exitDy=0;" edge="1" parent="1" source="Muw8rnbawQWDz423CU67-139" target="Muw8rnbawQWDz423CU67-142">
          <mxGeometry relative="1" as="geometry">
            <mxPoint x="1930" y="2300" as="targetPoint" />
          </mxGeometry>
        </mxCell>
        <mxCell id="Muw8rnbawQWDz423CU67-139" value="导出失败数据返回前端" style="rounded=0;whiteSpace=wrap;html=1;" vertex="1" parent="1">
          <mxGeometry x="1870" y="2150" width="120" height="60" as="geometry" />
        </mxCell>
        <mxCell id="Muw8rnbawQWDz423CU67-142" value="结束" style="ellipse;whiteSpace=wrap;html=1;aspect=fixed;" vertex="1" parent="1">
          <mxGeometry x="1890" y="2270" width="80" height="80" as="geometry" />
        </mxCell>
        <mxCell id="Muw8rnbawQWDz423CU67-143" style="edgeStyle=orthogonalEdgeStyle;rounded=0;orthogonalLoop=1;jettySize=auto;html=1;exitX=0.5;exitY=1;exitDx=0;exitDy=0;" edge="1" parent="1" source="Muw8rnbawQWDz423CU67-144">
          <mxGeometry relative="1" as="geometry">
            <mxPoint x="2409.8823529411766" y="280" as="targetPoint" />
          </mxGeometry>
        </mxCell>
        <mxCell id="Muw8rnbawQWDz423CU67-144" value="定时清理excel文件" style="rounded=0;whiteSpace=wrap;html=1;" vertex="1" parent="1">
          <mxGeometry x="2350" y="110" width="120" height="60" as="geometry" />
        </mxCell>
        <mxCell id="Muw8rnbawQWDz423CU67-145" style="edgeStyle=orthogonalEdgeStyle;rounded=0;orthogonalLoop=1;jettySize=auto;html=1;" edge="1" parent="1" source="Muw8rnbawQWDz423CU67-146" target="Muw8rnbawQWDz423CU67-148">
          <mxGeometry relative="1" as="geometry" />
        </mxCell>
        <mxCell id="Muw8rnbawQWDz423CU67-146" value="查询前天以及前天日期命名的文件夹路径下的文件" style="rounded=0;whiteSpace=wrap;html=1;" vertex="1" parent="1">
          <mxGeometry x="2350" y="280" width="120" height="60" as="geometry" />
        </mxCell>
        <mxCell id="Muw8rnbawQWDz423CU67-147" style="edgeStyle=orthogonalEdgeStyle;rounded=0;orthogonalLoop=1;jettySize=auto;html=1;exitX=0.5;exitY=1;exitDx=0;exitDy=0;" edge="1" parent="1" source="Muw8rnbawQWDz423CU67-148" target="Muw8rnbawQWDz423CU67-149">
          <mxGeometry relative="1" as="geometry" />
        </mxCell>
        <mxCell id="Muw8rnbawQWDz423CU67-148" value="执行删除操作" style="rounded=0;whiteSpace=wrap;html=1;" vertex="1" parent="1">
          <mxGeometry x="2350" y="430" width="120" height="60" as="geometry" />
        </mxCell>
        <mxCell id="Muw8rnbawQWDz423CU67-149" value="结束" style="ellipse;whiteSpace=wrap;html=1;aspect=fixed;" vertex="1" parent="1">
          <mxGeometry x="2370" y="600" width="80" height="80" as="geometry" />
        </mxCell>
        <mxCell id="Muw8rnbawQWDz423CU67-154" style="rounded=0;orthogonalLoop=1;jettySize=auto;html=1;exitX=0;exitY=0;exitDx=80;exitDy=65;exitPerimeter=0;dashed=1;endArrow=none;endFill=0;" edge="1" parent="1" source="Muw8rnbawQWDz423CU67-153" target="Muw8rnbawQWDz423CU67-33">
          <mxGeometry relative="1" as="geometry" />
        </mxCell>
        <mxCell id="Muw8rnbawQWDz423CU67-153" value="抽样算法" style="shape=note;whiteSpace=wrap;html=1;backgroundOutline=1;darkOpacity=0.05;fillColor=#ffe6cc;strokeColor=#d79b00;" vertex="1" parent="1">
          <mxGeometry x="690" y="800" width="80" height="100" as="geometry" />
        </mxCell>
      </root>
    </mxGraphModel>
  </diagram>
</mxfile>
